<?xml version="1.0" encoding="UTF-8" standalone="no"?><svg xmlns="http://www.w3.org/2000/svg" xmlns:xlink="http://www.w3.org/1999/xlink" contentScriptType="application/ecmascript" contentStyleType="text/css" height="1103px" preserveAspectRatio="none" style="width:1753px;height:1103px;" version="1.1" viewBox="0 0 1753 1103" width="1753px" zoomAndPan="magnify"><defs><filter height="300%" id="f14eqlju4xdr41" width="300%" x="-1" y="-1"><feGaussianBlur result="blurOut" stdDeviation="2.0"/><feColorMatrix in="blurOut" result="blurOut2" type="matrix" values="0 0 0 0 0 0 0 0 0 0 0 0 0 0 0 0 0 0 .4 0"/><feOffset dx="4.0" dy="4.0" in="blurOut2" result="blurOut3"/><feBlend in="SourceGraphic" in2="blurOut3" mode="normal"/></filter></defs><g><!--MD5=[3ff016c1aa5003d713567a073e2181a6]
cluster application--><rect fill="#FFFFFF" filter="url(#f14eqlju4xdr41)" height="217" style="stroke: #000000; stroke-width: 1.5;" width="646" x="1090" y="92"/><text fill="#000000" font-family="sans-serif" font-size="14" font-weight="bold" lengthAdjust="spacingAndGlyphs" textLength="92" x="1367" y="106.9951">application</text><!--MD5=[c82cb675f85a701f7a892a911c17414e]
cluster application.controllers--><rect fill="#FFFFFF" filter="url(#f14eqlju4xdr41)" height="556" style="stroke: #000000; stroke-width: 1.5;" width="1074" x="7" y="530"/><text fill="#000000" font-family="sans-serif" font-size="14" font-weight="bold" lengthAdjust="spacingAndGlyphs" textLength="186" x="451" y="544.9951">application.controllers</text><!--MD5=[6ca3886dd1d190cb43d8fefe62337b25]
cluster application.warningSystem--><rect fill="#FFFFFF" filter="url(#f14eqlju4xdr41)" height="217" style="stroke: #000000; stroke-width: 1.5;" width="319" x="7" y="92"/><text fill="#000000" font-family="sans-serif" font-size="14" font-weight="bold" lengthAdjust="spacingAndGlyphs" textLength="222" x="55.5" y="106.9951">application.warningSystem</text><!--MD5=[e0cccc3d6e5c11f9ea675768b626545d]
cluster application.networking--><polygon fill="#FFFFFF" filter="url(#f14eqlju4xdr41)" points="511,349,705,349,712,371.2969,828,371.2969,828,490,511,490,511,349" style="stroke: #000000; stroke-width: 1.5;"/><line style="stroke: #000000; stroke-width: 1.5;" x1="511" x2="712" y1="371.2969" y2="371.2969"/><text fill="#000000" font-family="sans-serif" font-size="14" font-weight="bold" lengthAdjust="spacingAndGlyphs" textLength="188" x="515" y="363.9951">application.networking</text><!--MD5=[ce1f2f2491b189ca61f11348ac27ca3c]
cluster sensorsApi--><path d="M1137.7531,374.3505 C1143.8862,361.7071 1154.4996,360.662 1163.2757,371.4746 C1174.2501,355.3746 1184.4107,356.9978 1194.5479,372.3082 C1201.428,358.7923 1213.1757,359.2141 1221.0512,371.2769 C1229.1864,358.8375 1240.6724,360.2831 1246.4726,373.583 C1253.4067,358.5534 1266.2145,357.0351 1275.135,371.6631 C1282.4916,360.8208 1295.1879,357.9232 1301.9014,372.3445 C1309.8252,356.8906 1318.8084,358.9409 1329.5162,369.3747 C1338.0286,357.5689 1348.2397,356.3872 1355.938,370.2138 C1362.4964,358.1478 1373.1861,359.2747 1380.2584,369.657 C1391.7886,356.5636 1402.636,356.0377 1410.5676,373.2554 C1417.2303,361.9778 1428.5213,363.0748 1435.118,373.3307 C1441.247,360.5802 1451.1746,358.5088 1460.1963,370.3849 C1470.1242,355.1329 1482.8419,353.7737 1491.7323,371.3807 C1503.1241,358.36 1514.9972,361.953 1521,377 C1523.2432,375.9483 1525.0843,377.0766 1524.5365,379.6918 C1539.1261,386.8749 1537.0022,395.6969 1526.7022,405.0091 C1539.4899,414.4487 1538.4442,424.4662 1524.5804,431.7946 C1539.9964,440.8856 1537.0762,451.1299 1525.656,461.2024 C1537.4847,467.5632 1541.8358,477.5964 1529.2008,487.2823 C1540.3502,493.0132 1541.2987,503.856 1529.7806,510.1613 C1542.1163,518.8152 1546.3495,529.1358 1531.3435,539.2583 C1542.6569,547.9143 1539.3234,560.6724 1527.2966,565.7648 C1540.8841,574.2664 1539.6074,583.067 1527.2346,591.5061 C1539.8686,601.4024 1538.0431,612.7279 1525.3489,621.0052 C1536.9635,634.3059 1529.2027,647.1958 1514,650 C1516.199,649.9051 1517.1939,650.6752 1516.5506,652.9982 C1510.6574,665.0075 1498.6113,667.0265 1491.4834,654.2468 C1483.4732,669.7691 1474.6021,667.7292 1464.2382,656.6582 C1457.841,670.551 1444.7388,670.5468 1436.3106,658.8771 C1428.2478,672.7329 1415.8051,674.6707 1406.7544,659.897 C1399.2237,672.6484 1387.5663,672.8108 1381.3259,658.6765 C1374.9237,672.8574 1365.8618,671.6697 1356.9512,661.1521 C1347.1449,675.1964 1337.9953,675.6979 1328.3653,660.9769 C1320.426,674.0553 1308.8955,677.9796 1299.1184,662.8848 C1288.5998,674.2532 1279.6693,672.128 1273.4929,658.4434 C1266.6986,670.2643 1253.1944,669.8549 1246.1045,658.7972 C1237.1671,670.9489 1228.7357,668.3483 1221.046,657.4413 C1211.8366,670.7264 1198.2611,673.0499 1190.3719,656.1018 C1183.0063,669.4657 1172.3259,666.2372 1165.5423,655.5023 C1148.8661,668.3771 1133.193,666.6118 1129,643 C1131.7529,642.699 1133.5804,644.4034 1132.4952,647.255 C1118.1568,641.3631 1114.096,630.3847 1127.2958,619.3599 C1114.8626,612.4263 1114.699,602.1864 1126.0491,594.0799 C1112.7035,585.3463 1112.804,572.6941 1127.0429,564.9 C1113.7329,558.3798 1111.2319,547.1299 1123.0194,536.9914 C1112.9103,530.231 1109.4782,522.5002 1121.044,513.8867 C1109.974,504.2092 1110.7866,494.7931 1124.4496,488.4235 C1111.6061,478.1075 1109.6791,463.9478 1127.8537,456.9911 C1116.1421,449.5778 1117.7039,442.415 1126.9872,434.2035 C1117.4302,424.0178 1115.8239,415.2141 1130.6715,408.5306 C1111.4212,393.1284 1116.3345,380.0204 1136,370 C1138.3788,370.3696 1139.2633,372.4138 1137.7531,374.3505 " fill="#FFFFFF" style="stroke: #000000; stroke-width: 1.5;"/><text fill="#000000" font-family="sans-serif" font-size="14" font-weight="bold" lengthAdjust="spacingAndGlyphs" textLength="89" x="1280.5" y="387.9951">sensorsApi</text><!--MD5=[84718776d214be480e4c259efcb737fc]
class Main--><rect fill="#FEFECE" filter="url(#f14eqlju4xdr41)" height="150.4375" id="Main" style="stroke: #A80036; stroke-width: 1.5;" width="282" x="1430" y="135"/><ellipse cx="1553.25" cy="151" fill="#ADD1B2" rx="11" ry="11" style="stroke: #A80036; stroke-width: 1.0;"/><path d="M1555.5938,146.6719 C1554.6563,146.2344 1554.0625,146.0938 1553.1875,146.0938 C1550.5625,146.0938 1548.5625,148.1719 1548.5625,150.8906 L1548.5625,152.0156 C1548.5625,154.5938 1550.6719,156.4844 1553.5625,156.4844 C1554.7813,156.4844 1555.9375,156.1875 1556.6875,155.6406 C1557.2656,155.2344 1557.5938,154.7813 1557.5938,154.3906 C1557.5938,153.9375 1557.2031,153.5469 1556.7344,153.5469 C1556.5156,153.5469 1556.3125,153.625 1556.125,153.8125 C1555.6719,154.2969 1555.6719,154.2969 1555.4844,154.3906 C1555.0625,154.6563 1554.375,154.7813 1553.6094,154.7813 C1551.5625,154.7813 1550.2656,153.6875 1550.2656,151.9844 L1550.2656,150.8906 C1550.2656,149.1094 1551.5156,147.7969 1553.25,147.7969 C1553.8281,147.7969 1554.4375,147.9531 1554.9063,148.2031 C1555.3906,148.4844 1555.5625,148.7031 1555.6563,149.1094 C1555.7188,149.5156 1555.75,149.6406 1555.8906,149.7656 C1556.0313,149.9063 1556.2656,150.0156 1556.4844,150.0156 C1556.75,150.0156 1557.0156,149.875 1557.1875,149.6563 C1557.2969,149.5 1557.3281,149.3125 1557.3281,148.8906 L1557.3281,147.4688 C1557.3281,147.0313 1557.3125,146.9063 1557.2188,146.75 C1557.0625,146.4844 1556.7813,146.3438 1556.4844,146.3438 C1556.1875,146.3438 1555.9844,146.4375 1555.7656,146.75 L1555.5938,146.6719 Z "/><text fill="#000000" font-family="sans-serif" font-size="12" lengthAdjust="spacingAndGlyphs" textLength="27" x="1573.75" y="155.1543">Main</text><line style="stroke: #A80036; stroke-width: 1.5;" x1="1431" x2="1711" y1="167" y2="167"/><ellipse cx="1441" cy="178" fill="none" rx="3" ry="3" style="stroke: #038048; stroke-width: 1.0;"/><text fill="#000000" font-family="sans-serif" font-size="11" lengthAdjust="spacingAndGlyphs" text-decoration="underline" textLength="110" x="1450" y="181.2104">serverOn : boolean</text><ellipse cx="1441" cy="190.8047" fill="none" rx="3" ry="3" style="stroke: #038048; stroke-width: 1.0;"/><text fill="#000000" font-family="sans-serif" font-size="11" lengthAdjust="spacingAndGlyphs" text-decoration="underline" textLength="99" x="1450" y="194.0151">running : boolean</text><ellipse cx="1441" cy="203.6094" fill="none" rx="3" ry="3" style="stroke: #038048; stroke-width: 1.0;"/><text fill="#000000" font-family="sans-serif" font-size="11" lengthAdjust="spacingAndGlyphs" text-decoration="underline" textLength="195" x="1450" y="206.8198">serviceManager : ServiceManager</text><ellipse cx="1441" cy="216.4141" fill="none" rx="3" ry="3" style="stroke: #038048; stroke-width: 1.0;"/><text fill="#000000" font-family="sans-serif" font-size="11" lengthAdjust="spacingAndGlyphs" text-decoration="underline" textLength="108" x="1450" y="219.6245">df : DecimalFormat</text><ellipse cx="1441" cy="229.2188" fill="none" rx="3" ry="3" style="stroke: #038048; stroke-width: 1.0;"/><text fill="#000000" font-family="sans-serif" font-size="11" lengthAdjust="spacingAndGlyphs" text-decoration="underline" textLength="119" x="1450" y="232.4292">dfW : DecimalFormat</text><line style="stroke: #A80036; stroke-width: 1.5;" x1="1431" x2="1711" y1="239.0234" y2="239.0234"/><ellipse cx="1441" cy="250.0234" fill="#84BE84" rx="3" ry="3" style="stroke: #038048; stroke-width: 1.0;"/><text fill="#000000" font-family="sans-serif" font-size="11" lengthAdjust="spacingAndGlyphs" text-decoration="underline" textLength="147" x="1450" y="253.2339">main(args : String[]) : void</text><ellipse cx="1441" cy="262.8281" fill="#84BE84" rx="3" ry="3" style="stroke: #038048; stroke-width: 1.0;"/><text fill="#000000" font-family="sans-serif" font-size="11" lengthAdjust="spacingAndGlyphs" text-decoration="underline" textLength="201" x="1450" y="266.0386">checkServerConnection() : boolean</text><ellipse cx="1441" cy="275.6328" fill="#84BE84" rx="3" ry="3" style="stroke: #038048; stroke-width: 1.0;"/><text fill="#000000" font-family="sans-serif" font-size="11" lengthAdjust="spacingAndGlyphs" textLength="256" x="1450" y="278.8433">start(primaryStage : Stage) : void «override»</text><!--MD5=[c5a32559b19dfcbab7b8df17ddbaf41c]
class ServiceManager--><rect fill="#FEFECE" filter="url(#f14eqlju4xdr41)" height="112.0234" id="ServiceManager" style="stroke: #A80036; stroke-width: 1.5;" width="261" x="1133.5" y="154"/><ellipse cx="1210.75" cy="170" fill="#ADD1B2" rx="11" ry="11" style="stroke: #A80036; stroke-width: 1.0;"/><path d="M1213.0938,165.6719 C1212.1563,165.2344 1211.5625,165.0938 1210.6875,165.0938 C1208.0625,165.0938 1206.0625,167.1719 1206.0625,169.8906 L1206.0625,171.0156 C1206.0625,173.5938 1208.1719,175.4844 1211.0625,175.4844 C1212.2813,175.4844 1213.4375,175.1875 1214.1875,174.6406 C1214.7656,174.2344 1215.0938,173.7813 1215.0938,173.3906 C1215.0938,172.9375 1214.7031,172.5469 1214.2344,172.5469 C1214.0156,172.5469 1213.8125,172.625 1213.625,172.8125 C1213.1719,173.2969 1213.1719,173.2969 1212.9844,173.3906 C1212.5625,173.6563 1211.875,173.7813 1211.1094,173.7813 C1209.0625,173.7813 1207.7656,172.6875 1207.7656,170.9844 L1207.7656,169.8906 C1207.7656,168.1094 1209.0156,166.7969 1210.75,166.7969 C1211.3281,166.7969 1211.9375,166.9531 1212.4063,167.2031 C1212.8906,167.4844 1213.0625,167.7031 1213.1563,168.1094 C1213.2188,168.5156 1213.25,168.6406 1213.3906,168.7656 C1213.5313,168.9063 1213.7656,169.0156 1213.9844,169.0156 C1214.25,169.0156 1214.5156,168.875 1214.6875,168.6563 C1214.7969,168.5 1214.8281,168.3125 1214.8281,167.8906 L1214.8281,166.4688 C1214.8281,166.0313 1214.8125,165.9063 1214.7188,165.75 C1214.5625,165.4844 1214.2813,165.3438 1213.9844,165.3438 C1213.6875,165.3438 1213.4844,165.4375 1213.2656,165.75 L1213.0938,165.6719 Z "/><text fill="#000000" font-family="sans-serif" font-size="12" lengthAdjust="spacingAndGlyphs" textLength="98" x="1231.25" y="174.1543">ServiceManager</text><line style="stroke: #A80036; stroke-width: 1.5;" x1="1134.5" x2="1393.5" y1="186" y2="186"/><rect fill="none" height="6" style="stroke: #C82930; stroke-width: 1.0;" width="6" x="1141.5" y="194"/><text fill="#000000" font-family="sans-serif" font-size="11" lengthAdjust="spacingAndGlyphs" textLength="157" x="1153.5" y="200.2104">removalInProcess : boolean</text><rect fill="none" height="6" style="stroke: #C82930; stroke-width: 1.0;" width="6" x="1141.5" y="206.8047"/><text fill="#000000" font-family="sans-serif" font-size="11" lengthAdjust="spacingAndGlyphs" textLength="119" x="1153.5" y="213.0151">controller : Controller</text><rect fill="none" height="6" style="stroke: #C82930; stroke-width: 1.0;" width="6" x="1141.5" y="219.6094"/><text fill="#000000" font-family="sans-serif" font-size="11" lengthAdjust="spacingAndGlyphs" textLength="91" x="1153.5" y="225.8198">SLEEP_TIME : int</text><line style="stroke: #A80036; stroke-width: 1.5;" x1="1134.5" x2="1393.5" y1="232.4141" y2="232.4141"/><polygon fill="#FFFF44" points="1144.5,238.4141,1148.5,242.4141,1144.5,246.4141,1140.5,242.4141" style="stroke: #B38D22; stroke-width: 1.0;"/><text fill="#000000" font-family="sans-serif" font-size="11" lengthAdjust="spacingAndGlyphs" textLength="141" x="1153.5" y="246.6245">call() : Object «override»</text><ellipse cx="1144.5" cy="256.2188" fill="#84BE84" rx="3" ry="3" style="stroke: #038048; stroke-width: 1.0;"/><text fill="#000000" font-family="sans-serif" font-size="11" lengthAdjust="spacingAndGlyphs" textLength="235" x="1153.5" y="259.4292">setController(controller : Controller) : void</text><!--MD5=[1d7ba1c7002d54515419844fbd155368]
class Controller--><rect fill="#FEFECE" filter="url(#f14eqlju4xdr41)" height="73.6094" id="Controller" style="stroke: #A80036; stroke-width: 1.5;" width="148" x="473" y="573"/><ellipse cx="514.1" cy="589" fill="#B4A7E5" rx="11" ry="11" style="stroke: #A80036; stroke-width: 1.0;"/><path d="M515.0531,585.7813 L516.7719,585.7813 C517.1625,585.7813 517.35,585.75 517.475,585.6719 C517.7406,585.5156 517.8813,585.2344 517.8813,584.9375 C517.8813,584.6719 517.7719,584.4063 517.5375,584.2344 C517.3656,584.125 517.225,584.0938 516.7719,584.0938 L511.6313,584.0938 C511.1938,584.0938 511.0688,584.1094 510.9125,584.2031 C510.6625,584.3594 510.5063,584.6563 510.5063,584.9375 C510.5063,585.2188 510.6469,585.4688 510.8656,585.6406 C511.0219,585.75 511.2094,585.7813 511.6313,585.7813 L513.35,585.7813 L513.35,592.2969 L511.6313,592.2969 C511.1938,592.2969 511.0688,592.3125 510.9125,592.4219 C510.6625,592.5781 510.5063,592.8594 510.5063,593.1563 C510.5063,593.4063 510.6469,593.6719 510.8656,593.8281 C511.0219,593.9531 511.225,594 511.6313,594 L516.7719,594 C517.5219,594 517.8813,593.7188 517.8813,593.1563 C517.8813,592.875 517.7719,592.625 517.5375,592.4531 C517.3656,592.3281 517.225,592.2969 516.7719,592.2969 L515.0531,592.2969 L515.0531,585.7813 Z "/><text fill="#000000" font-family="sans-serif" font-size="12" font-style="italic" lengthAdjust="spacingAndGlyphs" textLength="58" x="533.9" y="593.1543">Controller</text><line style="stroke: #A80036; stroke-width: 1.5;" x1="474" x2="620" y1="605" y2="605"/><line style="stroke: #A80036; stroke-width: 1.5;" x1="474" x2="620" y1="613" y2="613"/><text fill="#000000" font-family="sans-serif" font-size="11" lengthAdjust="spacingAndGlyphs" textLength="105" x="479" y="627.2104">update() : boolean</text><text fill="#000000" font-family="sans-serif" font-size="11" lengthAdjust="spacingAndGlyphs" textLength="136" x="479" y="640.0151">requestData() : boolean</text><!--MD5=[2d2941eac7fc719c3cb2b2a07e234ae4]
class MainHubController--><rect fill="#FEFECE" filter="url(#f14eqlju4xdr41)" height="214.4609" id="MainHubController" style="stroke: #A80036; stroke-width: 1.5;" width="322" x="735" y="777.5"/><ellipse cx="836.75" cy="793.5" fill="#ADD1B2" rx="11" ry="11" style="stroke: #A80036; stroke-width: 1.0;"/><path d="M839.0938,789.1719 C838.1563,788.7344 837.5625,788.5938 836.6875,788.5938 C834.0625,788.5938 832.0625,790.6719 832.0625,793.3906 L832.0625,794.5156 C832.0625,797.0938 834.1719,798.9844 837.0625,798.9844 C838.2813,798.9844 839.4375,798.6875 840.1875,798.1406 C840.7656,797.7344 841.0938,797.2813 841.0938,796.8906 C841.0938,796.4375 840.7031,796.0469 840.2344,796.0469 C840.0156,796.0469 839.8125,796.125 839.625,796.3125 C839.1719,796.7969 839.1719,796.7969 838.9844,796.8906 C838.5625,797.1563 837.875,797.2813 837.1094,797.2813 C835.0625,797.2813 833.7656,796.1875 833.7656,794.4844 L833.7656,793.3906 C833.7656,791.6094 835.0156,790.2969 836.75,790.2969 C837.3281,790.2969 837.9375,790.4531 838.4063,790.7031 C838.8906,790.9844 839.0625,791.2031 839.1563,791.6094 C839.2188,792.0156 839.25,792.1406 839.3906,792.2656 C839.5313,792.4063 839.7656,792.5156 839.9844,792.5156 C840.25,792.5156 840.5156,792.375 840.6875,792.1563 C840.7969,792 840.8281,791.8125 840.8281,791.3906 L840.8281,789.9688 C840.8281,789.5313 840.8125,789.4063 840.7188,789.25 C840.5625,788.9844 840.2813,788.8438 839.9844,788.8438 C839.6875,788.8438 839.4844,788.9375 839.2656,789.25 L839.0938,789.1719 Z "/><text fill="#000000" font-family="sans-serif" font-size="12" lengthAdjust="spacingAndGlyphs" textLength="110" x="857.25" y="797.6543">MainHubController</text><line style="stroke: #A80036; stroke-width: 1.5;" x1="736" x2="1056" y1="809.5" y2="809.5"/><ellipse cx="746" cy="820.5" fill="none" rx="3" ry="3" style="stroke: #038048; stroke-width: 1.0;"/><text fill="#000000" font-family="sans-serif" font-size="11" lengthAdjust="spacingAndGlyphs" text-decoration="underline" textLength="52" x="755" y="823.7104">days : int</text><rect fill="none" height="6" style="stroke: #C82930; stroke-width: 1.0;" width="6" x="743" y="830.3047"/><text fill="#000000" font-family="sans-serif" font-size="11" lengthAdjust="spacingAndGlyphs" textLength="135" x="755" y="836.5151">slider : JFXSlider «fxml»</text><rect fill="none" height="6" style="stroke: #C82930; stroke-width: 1.0;" width="6" x="743" y="843.1094"/><text fill="#000000" font-family="sans-serif" font-size="11" lengthAdjust="spacingAndGlyphs" textLength="127" x="755" y="849.3198">temp_c : Label «fxml»</text><rect fill="none" height="6" style="stroke: #C82930; stroke-width: 1.0;" width="6" x="743" y="855.9141"/><text fill="#000000" font-family="sans-serif" font-size="11" lengthAdjust="spacingAndGlyphs" textLength="165" x="755" y="862.1245">daysHubLabel : Label «fxml»</text><rect fill="none" height="6" style="stroke: #C82930; stroke-width: 1.0;" width="6" x="743" y="868.7188"/><text fill="#000000" font-family="sans-serif" font-size="11" lengthAdjust="spacingAndGlyphs" textLength="139" x="755" y="874.9292">lastGlobalTemp : double</text><line style="stroke: #A80036; stroke-width: 1.5;" x1="736" x2="1056" y1="881.5234" y2="881.5234"/><rect fill="#F24D5C" height="6" style="stroke: #C82930; stroke-width: 1.0;" width="6" x="743" y="889.5234"/><text fill="#000000" font-family="sans-serif" font-size="11" lengthAdjust="spacingAndGlyphs" textLength="185" x="755" y="895.7339">initialize() : void «synchronized»</text><ellipse cx="746" cy="905.3281" fill="#84BE84" rx="3" ry="3" style="stroke: #038048; stroke-width: 1.0;"/><text fill="#000000" font-family="sans-serif" font-size="11" lengthAdjust="spacingAndGlyphs" textLength="171" x="755" y="908.5386">update() : boolean «override»</text><ellipse cx="746" cy="918.1328" fill="#84BE84" rx="3" ry="3" style="stroke: #038048; stroke-width: 1.0;"/><text fill="#000000" font-family="sans-serif" font-size="11" lengthAdjust="spacingAndGlyphs" textLength="296" x="755" y="921.3433">requestData() : boolean «override» «synchronized»</text><rect fill="#F24D5C" height="6" style="stroke: #C82930; stroke-width: 1.0;" width="6" x="743" y="927.9375"/><text fill="#000000" font-family="sans-serif" font-size="11" lengthAdjust="spacingAndGlyphs" textLength="161" x="755" y="934.1479">changeValue() : void «fxml»</text><rect fill="#F24D5C" height="6" style="stroke: #C82930; stroke-width: 1.0;" width="6" x="743" y="940.7422"/><text fill="#000000" font-family="sans-serif" font-size="11" lengthAdjust="spacingAndGlyphs" textLength="144" x="755" y="946.9526">increment() : void «fxml»</text><rect fill="#F24D5C" height="6" style="stroke: #C82930; stroke-width: 1.0;" width="6" x="743" y="953.5469"/><text fill="#000000" font-family="sans-serif" font-size="11" lengthAdjust="spacingAndGlyphs" textLength="149" x="755" y="959.7573">decrement() : void «fxml»</text><ellipse cx="746" cy="969.3516" fill="#84BE84" rx="3" ry="3" style="stroke: #038048; stroke-width: 1.0;"/><text fill="#000000" font-family="sans-serif" font-size="11" lengthAdjust="spacingAndGlyphs" textLength="262" x="755" y="972.562">changeScreenRooms(evt : ActionEvent) : void</text><ellipse cx="746" cy="982.1563" fill="#84BE84" rx="3" ry="3" style="stroke: #038048; stroke-width: 1.0;"/><text fill="#000000" font-family="sans-serif" font-size="11" lengthAdjust="spacingAndGlyphs" textLength="275" x="755" y="985.3667">changeScreenStatistics(evt : ActionEvent) : void</text><!--MD5=[ba965377653dd398f1247e04467cbc76]
class RoomsController--><rect fill="#FEFECE" filter="url(#f14eqlju4xdr41)" height="355.3125" id="RoomsController" style="stroke: #A80036; stroke-width: 1.5;" width="320" x="39" y="707"/><ellipse cx="144.75" cy="723" fill="#ADD1B2" rx="11" ry="11" style="stroke: #A80036; stroke-width: 1.0;"/><path d="M147.0938,718.6719 C146.1563,718.2344 145.5625,718.0938 144.6875,718.0938 C142.0625,718.0938 140.0625,720.1719 140.0625,722.8906 L140.0625,724.0156 C140.0625,726.5938 142.1719,728.4844 145.0625,728.4844 C146.2813,728.4844 147.4375,728.1875 148.1875,727.6406 C148.7656,727.2344 149.0938,726.7813 149.0938,726.3906 C149.0938,725.9375 148.7031,725.5469 148.2344,725.5469 C148.0156,725.5469 147.8125,725.625 147.625,725.8125 C147.1719,726.2969 147.1719,726.2969 146.9844,726.3906 C146.5625,726.6563 145.875,726.7813 145.1094,726.7813 C143.0625,726.7813 141.7656,725.6875 141.7656,723.9844 L141.7656,722.8906 C141.7656,721.1094 143.0156,719.7969 144.75,719.7969 C145.3281,719.7969 145.9375,719.9531 146.4063,720.2031 C146.8906,720.4844 147.0625,720.7031 147.1563,721.1094 C147.2188,721.5156 147.25,721.6406 147.3906,721.7656 C147.5313,721.9063 147.7656,722.0156 147.9844,722.0156 C148.25,722.0156 148.5156,721.875 148.6875,721.6563 C148.7969,721.5 148.8281,721.3125 148.8281,720.8906 L148.8281,719.4688 C148.8281,719.0313 148.8125,718.9063 148.7188,718.75 C148.5625,718.4844 148.2813,718.3438 147.9844,718.3438 C147.6875,718.3438 147.4844,718.4375 147.2656,718.75 L147.0938,718.6719 Z "/><text fill="#000000" font-family="sans-serif" font-size="12" lengthAdjust="spacingAndGlyphs" textLength="100" x="165.25" y="727.1543">RoomsController</text><line style="stroke: #A80036; stroke-width: 1.5;" x1="40" x2="358" y1="739" y2="739"/><ellipse cx="50" cy="750" fill="none" rx="3" ry="3" style="stroke: #038048; stroke-width: 1.0;"/><text fill="#000000" font-family="sans-serif" font-size="11" lengthAdjust="spacingAndGlyphs" text-decoration="underline" textLength="170" x="59" y="753.2104">roomsToDelete : List&lt;String&gt;</text><ellipse cx="50" cy="762.8047" fill="none" rx="3" ry="3" style="stroke: #038048; stroke-width: 1.0;"/><text fill="#000000" font-family="sans-serif" font-size="11" lengthAdjust="spacingAndGlyphs" text-decoration="underline" textLength="164" x="59" y="766.0151">removingInProcess : boolean</text><rect fill="none" height="6" style="stroke: #C82930; stroke-width: 1.0;" width="6" x="47" y="772.6094"/><text fill="#000000" font-family="sans-serif" font-size="11" lengthAdjust="spacingAndGlyphs" textLength="158" x="59" y="778.8198">sensorPaneId : Pane «fxml»</text><rect fill="none" height="6" style="stroke: #C82930; stroke-width: 1.0;" width="6" x="47" y="785.4141"/><text fill="#000000" font-family="sans-serif" font-size="11" lengthAdjust="spacingAndGlyphs" textLength="196" x="59" y="791.6245">listView : ListView&lt;String&gt; «fxml»</text><rect fill="none" height="6" style="stroke: #C82930; stroke-width: 1.0;" width="6" x="47" y="798.2188"/><text fill="#000000" font-family="sans-serif" font-size="11" lengthAdjust="spacingAndGlyphs" textLength="205" x="59" y="804.4292">textAddTextField : TextField «fxml»</text><rect fill="none" height="6" style="stroke: #C82930; stroke-width: 1.0;" width="6" x="47" y="811.0234"/><text fill="#000000" font-family="sans-serif" font-size="11" lengthAdjust="spacingAndGlyphs" textLength="188" x="59" y="817.2339">sensorNameLabel : Label «fxml»</text><rect fill="none" height="6" style="stroke: #C82930; stroke-width: 1.0;" width="6" x="47" y="823.8281"/><text fill="#000000" font-family="sans-serif" font-size="11" lengthAdjust="spacingAndGlyphs" textLength="191" x="59" y="830.0386">lightsOnTimeLabel : Label «fxml»</text><rect fill="none" height="6" style="stroke: #C82930; stroke-width: 1.0;" width="6" x="47" y="836.6328"/><text fill="#000000" font-family="sans-serif" font-size="11" lengthAdjust="spacingAndGlyphs" textLength="188" x="59" y="842.8433">temperatureLabel : Label «fxml»</text><rect fill="none" height="6" style="stroke: #C82930; stroke-width: 1.0;" width="6" x="47" y="849.4375"/><text fill="#000000" font-family="sans-serif" font-size="11" lengthAdjust="spacingAndGlyphs" textLength="248" x="59" y="855.6479">powerConsumptionAtmLabel : Label «fxml»</text><rect fill="none" height="6" style="stroke: #C82930; stroke-width: 1.0;" width="6" x="47" y="862.2422"/><text fill="#000000" font-family="sans-serif" font-size="11" lengthAdjust="spacingAndGlyphs" textLength="181" x="59" y="868.4526">usedRoomNames : List&lt;String&gt;</text><rect fill="none" height="6" style="stroke: #C82930; stroke-width: 1.0;" width="6" x="47" y="875.0469"/><text fill="#000000" font-family="sans-serif" font-size="11" lengthAdjust="spacingAndGlyphs" textLength="203" x="59" y="881.2573">currentlyChosenRoomName : String</text><rect fill="none" height="6" style="stroke: #C82930; stroke-width: 1.0;" width="6" x="47" y="887.8516"/><text fill="#000000" font-family="sans-serif" font-size="11" lengthAdjust="spacingAndGlyphs" textLength="142" x="59" y="894.062">electricityUsage : double</text><rect fill="none" height="6" style="stroke: #C82930; stroke-width: 1.0;" width="6" x="47" y="900.6563"/><text fill="#000000" font-family="sans-serif" font-size="11" lengthAdjust="spacingAndGlyphs" textLength="110" x="59" y="906.8667">lightTime : boolean</text><rect fill="none" height="6" style="stroke: #C82930; stroke-width: 1.0;" width="6" x="47" y="913.4609"/><text fill="#000000" font-family="sans-serif" font-size="11" lengthAdjust="spacingAndGlyphs" textLength="165" x="59" y="919.6714">currentTemperature : double</text><rect fill="none" height="6" style="stroke: #C82930; stroke-width: 1.0;" width="6" x="47" y="926.2656"/><text fill="#000000" font-family="sans-serif" font-size="11" lengthAdjust="spacingAndGlyphs" textLength="89" x="59" y="932.4761">sensor : Sensor</text><rect fill="none" height="6" style="stroke: #C82930; stroke-width: 1.0;" width="6" x="47" y="939.0703"/><text fill="#000000" font-family="sans-serif" font-size="11" lengthAdjust="spacingAndGlyphs" textLength="72" x="59" y="945.2808">room : Room</text><line style="stroke: #A80036; stroke-width: 1.5;" x1="40" x2="358" y1="951.875" y2="951.875"/><ellipse cx="50" cy="962.875" fill="#84BE84" rx="3" ry="3" style="stroke: #038048; stroke-width: 1.0;"/><text fill="#000000" font-family="sans-serif" font-size="11" lengthAdjust="spacingAndGlyphs" textLength="294" x="59" y="966.0854">handleMouseClick(arg0 : MouseEvent) : void «fxml»</text><rect fill="#F24D5C" height="6" style="stroke: #C82930; stroke-width: 1.0;" width="6" x="47" y="972.6797"/><text fill="#000000" font-family="sans-serif" font-size="11" lengthAdjust="spacingAndGlyphs" textLength="228" x="59" y="978.8901">initialize() : void «fxml» «synchronized»</text><ellipse cx="50" cy="988.4844" fill="#84BE84" rx="3" ry="3" style="stroke: #038048; stroke-width: 1.0;"/><text fill="#000000" font-family="sans-serif" font-size="11" lengthAdjust="spacingAndGlyphs" textLength="105" x="59" y="991.6948">update() : boolean</text><ellipse cx="50" cy="1001.2891" fill="#84BE84" rx="3" ry="3" style="stroke: #038048; stroke-width: 1.0;"/><text fill="#000000" font-family="sans-serif" font-size="11" lengthAdjust="spacingAndGlyphs" textLength="230" x="59" y="1004.4995">requestData() : boolean «synchronized»</text><ellipse cx="50" cy="1014.0938" fill="#84BE84" rx="3" ry="3" style="stroke: #038048; stroke-width: 1.0;"/><text fill="#000000" font-family="sans-serif" font-size="11" lengthAdjust="spacingAndGlyphs" textLength="190" x="59" y="1017.3042">addRoom() : void «synchronized»</text><ellipse cx="50" cy="1026.8984" fill="#84BE84" rx="3" ry="3" style="stroke: #038048; stroke-width: 1.0;"/><text fill="#000000" font-family="sans-serif" font-size="11" lengthAdjust="spacingAndGlyphs" textLength="120" x="59" y="1030.1089">removeRoom() : void</text><ellipse cx="50" cy="1039.7031" fill="#84BE84" rx="3" ry="3" style="stroke: #038048; stroke-width: 1.0;"/><text fill="#000000" font-family="sans-serif" font-size="11" lengthAdjust="spacingAndGlyphs" textLength="275" x="59" y="1042.9136">changeScreenStatistics(evt : ActionEvent) : void</text><ellipse cx="50" cy="1052.5078" fill="#84BE84" rx="3" ry="3" style="stroke: #038048; stroke-width: 1.0;"/><text fill="#000000" font-family="sans-serif" font-size="11" lengthAdjust="spacingAndGlyphs" textLength="182" x="59" y="1055.7183">goBack(evt : ActionEvent) : void</text><!--MD5=[e1ed3d7b3fee1b3fcdddf22435bb9f4c]
class StatisticsController--><rect fill="#FEFECE" filter="url(#f14eqlju4xdr41)" height="316.8984" id="StatisticsController" style="stroke: #A80036; stroke-width: 1.5;" width="306" x="394" y="726"/><ellipse cx="486.25" cy="742" fill="#ADD1B2" rx="11" ry="11" style="stroke: #A80036; stroke-width: 1.0;"/><path d="M488.5938,737.6719 C487.6563,737.2344 487.0625,737.0938 486.1875,737.0938 C483.5625,737.0938 481.5625,739.1719 481.5625,741.8906 L481.5625,743.0156 C481.5625,745.5938 483.6719,747.4844 486.5625,747.4844 C487.7813,747.4844 488.9375,747.1875 489.6875,746.6406 C490.2656,746.2344 490.5938,745.7813 490.5938,745.3906 C490.5938,744.9375 490.2031,744.5469 489.7344,744.5469 C489.5156,744.5469 489.3125,744.625 489.125,744.8125 C488.6719,745.2969 488.6719,745.2969 488.4844,745.3906 C488.0625,745.6563 487.375,745.7813 486.6094,745.7813 C484.5625,745.7813 483.2656,744.6875 483.2656,742.9844 L483.2656,741.8906 C483.2656,740.1094 484.5156,738.7969 486.25,738.7969 C486.8281,738.7969 487.4375,738.9531 487.9063,739.2031 C488.3906,739.4844 488.5625,739.7031 488.6563,740.1094 C488.7188,740.5156 488.75,740.6406 488.8906,740.7656 C489.0313,740.9063 489.2656,741.0156 489.4844,741.0156 C489.75,741.0156 490.0156,740.875 490.1875,740.6563 C490.2969,740.5 490.3281,740.3125 490.3281,739.8906 L490.3281,738.4688 C490.3281,738.0313 490.3125,737.9063 490.2188,737.75 C490.0625,737.4844 489.7813,737.3438 489.4844,737.3438 C489.1875,737.3438 488.9844,737.4375 488.7656,737.75 L488.5938,737.6719 Z "/><text fill="#000000" font-family="sans-serif" font-size="12" lengthAdjust="spacingAndGlyphs" textLength="113" x="506.75" y="746.1543">StatisticsController</text><line style="stroke: #A80036; stroke-width: 1.5;" x1="395" x2="699" y1="758" y2="758"/><ellipse cx="405" cy="769" fill="none" rx="3" ry="3" style="stroke: #038048; stroke-width: 1.0;"/><text fill="#000000" font-family="sans-serif" font-size="11" lengthAdjust="spacingAndGlyphs" text-decoration="underline" textLength="101" x="414" y="772.2104">MONTHS : String[]</text><ellipse cx="405" cy="781.8047" fill="none" rx="3" ry="3" style="stroke: #038048; stroke-width: 1.0;"/><text fill="#000000" font-family="sans-serif" font-size="11" lengthAdjust="spacingAndGlyphs" text-decoration="underline" textLength="220" x="414" y="785.0151">roomNamesIDs : Map&lt;String, Integer&gt;</text><ellipse cx="405" cy="794.6094" fill="none" rx="3" ry="3" style="stroke: #038048; stroke-width: 1.0;"/><text fill="#000000" font-family="sans-serif" font-size="11" lengthAdjust="spacingAndGlyphs" text-decoration="underline" textLength="141" x="414" y="797.8198">threadFinished : boolean</text><ellipse cx="405" cy="807.4141" fill="none" rx="3" ry="3" style="stroke: #038048; stroke-width: 1.0;"/><text fill="#000000" font-family="sans-serif" font-size="11" lengthAdjust="spacingAndGlyphs" text-decoration="underline" textLength="94" x="414" y="810.6245">daysHeated : int</text><ellipse cx="405" cy="820.2188" fill="none" rx="3" ry="3" style="stroke: #038048; stroke-width: 1.0;"/><text fill="#000000" font-family="sans-serif" font-size="11" lengthAdjust="spacingAndGlyphs" text-decoration="underline" textLength="273" x="414" y="823.4292">lightData : Map&lt;String, Map&lt;Integer, Integer&gt;&gt;</text><ellipse cx="405" cy="833.0234" fill="none" rx="3" ry="3" style="stroke: #038048; stroke-width: 1.0;"/><text fill="#000000" font-family="sans-serif" font-size="11" lengthAdjust="spacingAndGlyphs" text-decoration="underline" textLength="280" x="414" y="836.2339">totalEnergyConsumption : Map&lt;Integer, Double&gt;</text><rect fill="none" height="6" style="stroke: #C82930; stroke-width: 1.0;" width="6" x="402" y="842.8281"/><text fill="#000000" font-family="sans-serif" font-size="11" lengthAdjust="spacingAndGlyphs" textLength="234" x="414" y="849.0386">roomsListView : ListView&lt;String&gt; «fxml»</text><rect fill="none" height="6" style="stroke: #C82930; stroke-width: 1.0;" width="6" x="402" y="855.6328"/><text fill="#000000" font-family="sans-serif" font-size="11" lengthAdjust="spacingAndGlyphs" textLength="241" x="414" y="861.8433">monthsListView : ListView&lt;String&gt; «fxml»</text><rect fill="none" height="6" style="stroke: #C82930; stroke-width: 1.0;" width="6" x="402" y="868.4375"/><text fill="#000000" font-family="sans-serif" font-size="11" lengthAdjust="spacingAndGlyphs" textLength="225" x="414" y="874.6479">numDaysHeaterOnLabel : Label «fxml»</text><rect fill="none" height="6" style="stroke: #C82930; stroke-width: 1.0;" width="6" x="402" y="881.2422"/><text fill="#000000" font-family="sans-serif" font-size="11" lengthAdjust="spacingAndGlyphs" textLength="237" x="414" y="887.4526">numAverageTimeLightsOn : Label «fxml»</text><rect fill="none" height="6" style="stroke: #C82930; stroke-width: 1.0;" width="6" x="402" y="894.0469"/><text fill="#000000" font-family="sans-serif" font-size="11" lengthAdjust="spacingAndGlyphs" textLength="224" x="414" y="900.2573">numFullPowerConsInKwh : Label «fxml»</text><rect fill="none" height="6" style="stroke: #C82930; stroke-width: 1.0;" width="6" x="402" y="906.8516"/><text fill="#000000" font-family="sans-serif" font-size="11" lengthAdjust="spacingAndGlyphs" textLength="171" x="414" y="913.062">currentlyChosenMonth : String</text><rect fill="none" height="6" style="stroke: #C82930; stroke-width: 1.0;" width="6" x="402" y="919.6563"/><text fill="#000000" font-family="sans-serif" font-size="11" lengthAdjust="spacingAndGlyphs" textLength="197" x="414" y="925.8667">currentlyChosenMonthNumber : int</text><rect fill="none" height="6" style="stroke: #C82930; stroke-width: 1.0;" width="6" x="402" y="932.4609"/><text fill="#000000" font-family="sans-serif" font-size="11" lengthAdjust="spacingAndGlyphs" textLength="203" x="414" y="938.6714">currentlyChosenRoomName : String</text><rect fill="none" height="6" style="stroke: #C82930; stroke-width: 1.0;" width="6" x="402" y="945.2656"/><text fill="#000000" font-family="sans-serif" font-size="11" lengthAdjust="spacingAndGlyphs" textLength="104" x="414" y="951.4761">updated : boolean</text><rect fill="none" height="6" style="stroke: #C82930; stroke-width: 1.0;" width="6" x="402" y="958.0703"/><text fill="#000000" font-family="sans-serif" font-size="11" lengthAdjust="spacingAndGlyphs" textLength="138" x="414" y="964.2808">statistics : StatisticsData</text><line style="stroke: #A80036; stroke-width: 1.5;" x1="395" x2="699" y1="970.875" y2="970.875"/><rect fill="#F24D5C" height="6" style="stroke: #C82930; stroke-width: 1.0;" width="6" x="402" y="978.875"/><text fill="#000000" font-family="sans-serif" font-size="11" lengthAdjust="spacingAndGlyphs" textLength="228" x="414" y="985.0854">initialize() : void «fxml» «synchronized»</text><ellipse cx="405" cy="994.6797" fill="#84BE84" rx="3" ry="3" style="stroke: #038048; stroke-width: 1.0;"/><text fill="#000000" font-family="sans-serif" font-size="11" lengthAdjust="spacingAndGlyphs" textLength="171" x="414" y="997.8901">update() : boolean «override»</text><ellipse cx="405" cy="1007.4844" fill="#84BE84" rx="3" ry="3" style="stroke: #038048; stroke-width: 1.0;"/><text fill="#000000" font-family="sans-serif" font-size="11" lengthAdjust="spacingAndGlyphs" textLength="202" x="414" y="1010.6948">requestData() : boolean «override»</text><ellipse cx="405" cy="1020.2891" fill="#84BE84" rx="3" ry="3" style="stroke: #038048; stroke-width: 1.0;"/><text fill="#000000" font-family="sans-serif" font-size="11" lengthAdjust="spacingAndGlyphs" textLength="262" x="414" y="1023.4995">changeScreenRooms(evt : ActionEvent) : void</text><ellipse cx="405" cy="1033.0938" fill="#84BE84" rx="3" ry="3" style="stroke: #038048; stroke-width: 1.0;"/><text fill="#000000" font-family="sans-serif" font-size="11" lengthAdjust="spacingAndGlyphs" textLength="182" x="414" y="1036.3042">goBack(evt : ActionEvent) : void</text><!--MD5=[eb5b4df49b8637c27ec3316f75f826bb]
class Warning--><rect fill="#FEFECE" filter="url(#f14eqlju4xdr41)" height="150.4375" id="Warning" style="stroke: #A80036; stroke-width: 1.5;" width="251" x="50.5" y="135"/><ellipse cx="147.25" cy="151" fill="#ADD1B2" rx="11" ry="11" style="stroke: #A80036; stroke-width: 1.0;"/><path d="M149.5938,146.6719 C148.6563,146.2344 148.0625,146.0938 147.1875,146.0938 C144.5625,146.0938 142.5625,148.1719 142.5625,150.8906 L142.5625,152.0156 C142.5625,154.5938 144.6719,156.4844 147.5625,156.4844 C148.7813,156.4844 149.9375,156.1875 150.6875,155.6406 C151.2656,155.2344 151.5938,154.7813 151.5938,154.3906 C151.5938,153.9375 151.2031,153.5469 150.7344,153.5469 C150.5156,153.5469 150.3125,153.625 150.125,153.8125 C149.6719,154.2969 149.6719,154.2969 149.4844,154.3906 C149.0625,154.6563 148.375,154.7813 147.6094,154.7813 C145.5625,154.7813 144.2656,153.6875 144.2656,151.9844 L144.2656,150.8906 C144.2656,149.1094 145.5156,147.7969 147.25,147.7969 C147.8281,147.7969 148.4375,147.9531 148.9063,148.2031 C149.3906,148.4844 149.5625,148.7031 149.6563,149.1094 C149.7188,149.5156 149.75,149.6406 149.8906,149.7656 C150.0313,149.9063 150.2656,150.0156 150.4844,150.0156 C150.75,150.0156 151.0156,149.875 151.1875,149.6563 C151.2969,149.5 151.3281,149.3125 151.3281,148.8906 L151.3281,147.4688 C151.3281,147.0313 151.3125,146.9063 151.2188,146.75 C151.0625,146.4844 150.7813,146.3438 150.4844,146.3438 C150.1875,146.3438 149.9844,146.4375 149.7656,146.75 L149.5938,146.6719 Z "/><text fill="#000000" font-family="sans-serif" font-size="12" lengthAdjust="spacingAndGlyphs" textLength="49" x="167.75" y="155.1543">Warning</text><line style="stroke: #A80036; stroke-width: 1.5;" x1="51.5" x2="300.5" y1="167" y2="167"/><ellipse cx="61.5" cy="178" fill="none" rx="3" ry="3" style="stroke: #038048; stroke-width: 1.0;"/><text fill="#000000" font-family="sans-serif" font-size="11" lengthAdjust="spacingAndGlyphs" text-decoration="underline" textLength="166" x="70.5" y="181.2104">labelProperty : StringProperty</text><rect fill="none" height="6" style="stroke: #C82930; stroke-width: 1.0;" width="6" x="58.5" y="187.8047"/><text fill="#000000" font-family="sans-serif" font-size="11" lengthAdjust="spacingAndGlyphs" textLength="68" x="70.5" y="194.0151">counter : int</text><rect fill="none" height="6" style="stroke: #C82930; stroke-width: 1.0;" width="6" x="58.5" y="200.6094"/><text fill="#000000" font-family="sans-serif" font-size="11" lengthAdjust="spacingAndGlyphs" textLength="152" x="70.5" y="206.8198">appOffButton : ButtonType</text><rect fill="none" height="6" style="stroke: #C82930; stroke-width: 1.0;" width="6" x="58.5" y="213.4141"/><text fill="#000000" font-family="sans-serif" font-size="11" lengthAdjust="spacingAndGlyphs" textLength="64" x="70.5" y="219.6245">alert : Alert</text><rect fill="none" height="6" style="stroke: #C82930; stroke-width: 1.0;" width="6" x="58.5" y="226.2188"/><text fill="#000000" font-family="sans-serif" font-size="11" lengthAdjust="spacingAndGlyphs" textLength="87" x="70.5" y="232.4292">window : Stage</text><rect fill="none" height="6" style="stroke: #C82930; stroke-width: 1.0;" width="6" x="58.5" y="239.0234"/><text fill="#000000" font-family="sans-serif" font-size="11" lengthAdjust="spacingAndGlyphs" textLength="70" x="70.5" y="245.2339">label : Label</text><line style="stroke: #A80036; stroke-width: 1.5;" x1="51.5" x2="300.5" y1="251.8281" y2="251.8281"/><ellipse cx="61.5" cy="262.8281" fill="#84BE84" rx="3" ry="3" style="stroke: #038048; stroke-width: 1.0;"/><text fill="#000000" font-family="sans-serif" font-size="11" lengthAdjust="spacingAndGlyphs" textLength="191" x="70.5" y="266.0386">.ctor(warningType : WarningType)</text><rect fill="#F24D5C" height="6" style="stroke: #C82930; stroke-width: 1.0;" width="6" x="58.5" y="272.6328"/><text fill="#000000" font-family="sans-serif" font-size="11" lengthAdjust="spacingAndGlyphs" textLength="225" x="70.5" y="278.8433">initServerDown() : void «synchronized»</text><!--MD5=[e07b5d7e112e846c90c59551be4d6a89]
class JSONHandler--><rect fill="#FEFECE" filter="url(#f14eqlju4xdr41)" height="73.6094" id="JSONHandler" style="stroke: #A80036; stroke-width: 1.5;" width="250" x="554" y="392"/><ellipse cx="636.25" cy="408" fill="#ADD1B2" rx="11" ry="11" style="stroke: #A80036; stroke-width: 1.0;"/><path d="M638.5938,403.6719 C637.6563,403.2344 637.0625,403.0938 636.1875,403.0938 C633.5625,403.0938 631.5625,405.1719 631.5625,407.8906 L631.5625,409.0156 C631.5625,411.5938 633.6719,413.4844 636.5625,413.4844 C637.7813,413.4844 638.9375,413.1875 639.6875,412.6406 C640.2656,412.2344 640.5938,411.7813 640.5938,411.3906 C640.5938,410.9375 640.2031,410.5469 639.7344,410.5469 C639.5156,410.5469 639.3125,410.625 639.125,410.8125 C638.6719,411.2969 638.6719,411.2969 638.4844,411.3906 C638.0625,411.6563 637.375,411.7813 636.6094,411.7813 C634.5625,411.7813 633.2656,410.6875 633.2656,408.9844 L633.2656,407.8906 C633.2656,406.1094 634.5156,404.7969 636.25,404.7969 C636.8281,404.7969 637.4375,404.9531 637.9063,405.2031 C638.3906,405.4844 638.5625,405.7031 638.6563,406.1094 C638.7188,406.5156 638.75,406.6406 638.8906,406.7656 C639.0313,406.9063 639.2656,407.0156 639.4844,407.0156 C639.75,407.0156 640.0156,406.875 640.1875,406.6563 C640.2969,406.5 640.3281,406.3125 640.3281,405.8906 L640.3281,404.4688 C640.3281,404.0313 640.3125,403.9063 640.2188,403.75 C640.0625,403.4844 639.7813,403.3438 639.4844,403.3438 C639.1875,403.3438 638.9844,403.4375 638.7656,403.75 L638.5938,403.6719 Z "/><text fill="#000000" font-family="sans-serif" font-size="12" lengthAdjust="spacingAndGlyphs" textLength="77" x="656.75" y="412.1543">JSONHandler</text><line style="stroke: #A80036; stroke-width: 1.5;" x1="555" x2="803" y1="424" y2="424"/><line style="stroke: #A80036; stroke-width: 1.5;" x1="555" x2="803" y1="432" y2="432"/><ellipse cx="565" cy="443" fill="#84BE84" rx="3" ry="3" style="stroke: #038048; stroke-width: 1.0;"/><text fill="#000000" font-family="sans-serif" font-size="11" lengthAdjust="spacingAndGlyphs" text-decoration="underline" textLength="172" x="574" y="446.2104">get(urlToRead : String) : String</text><ellipse cx="565" cy="455.8047" fill="#84BE84" rx="3" ry="3" style="stroke: #038048; stroke-width: 1.0;"/><text fill="#000000" font-family="sans-serif" font-size="11" lengthAdjust="spacingAndGlyphs" text-decoration="underline" textLength="224" x="574" y="459.0151">post(urlPath : String, body: String) : void</text><!--MD5=[74adbee261df4942c273988da3669ec9]
class SensorController--><rect fill="#FEFECE" filter="url(#f14eqlju4xdr41)" height="48" id="SensorController" style="stroke: #A80036; stroke-width: 1.5;" width="134" x="1164" y="405"/><ellipse cx="1179" cy="421" fill="#ADD1B2" rx="11" ry="11" style="stroke: #A80036; stroke-width: 1.0;"/><path d="M1181.3438,416.6719 C1180.4063,416.2344 1179.8125,416.0938 1178.9375,416.0938 C1176.3125,416.0938 1174.3125,418.1719 1174.3125,420.8906 L1174.3125,422.0156 C1174.3125,424.5938 1176.4219,426.4844 1179.3125,426.4844 C1180.5313,426.4844 1181.6875,426.1875 1182.4375,425.6406 C1183.0156,425.2344 1183.3438,424.7813 1183.3438,424.3906 C1183.3438,423.9375 1182.9531,423.5469 1182.4844,423.5469 C1182.2656,423.5469 1182.0625,423.625 1181.875,423.8125 C1181.4219,424.2969 1181.4219,424.2969 1181.2344,424.3906 C1180.8125,424.6563 1180.125,424.7813 1179.3594,424.7813 C1177.3125,424.7813 1176.0156,423.6875 1176.0156,421.9844 L1176.0156,420.8906 C1176.0156,419.1094 1177.2656,417.7969 1179,417.7969 C1179.5781,417.7969 1180.1875,417.9531 1180.6563,418.2031 C1181.1406,418.4844 1181.3125,418.7031 1181.4063,419.1094 C1181.4688,419.5156 1181.5,419.6406 1181.6406,419.7656 C1181.7813,419.9063 1182.0156,420.0156 1182.2344,420.0156 C1182.5,420.0156 1182.7656,419.875 1182.9375,419.6563 C1183.0469,419.5 1183.0781,419.3125 1183.0781,418.8906 L1183.0781,417.4688 C1183.0781,417.0313 1183.0625,416.9063 1182.9688,416.75 C1182.8125,416.4844 1182.5313,416.3438 1182.2344,416.3438 C1181.9375,416.3438 1181.7344,416.4375 1181.5156,416.75 L1181.3438,416.6719 Z "/><text fill="#000000" font-family="sans-serif" font-size="12" lengthAdjust="spacingAndGlyphs" textLength="102" x="1193" y="425.1543">SensorController</text><line style="stroke: #A80036; stroke-width: 1.5;" x1="1165" x2="1297" y1="437" y2="437"/><line style="stroke: #A80036; stroke-width: 1.5;" x1="1165" x2="1297" y1="445" y2="445"/><!--MD5=[a86ca7ebbd921c6fed9b98598a44b322]
class StatisticsDataController--><rect fill="#FEFECE" filter="url(#f14eqlju4xdr41)" height="48" id="StatisticsDataController" style="stroke: #A80036; stroke-width: 1.5;" width="172" x="1333" y="405"/><ellipse cx="1348" cy="421" fill="#ADD1B2" rx="11" ry="11" style="stroke: #A80036; stroke-width: 1.0;"/><path d="M1350.3438,416.6719 C1349.4063,416.2344 1348.8125,416.0938 1347.9375,416.0938 C1345.3125,416.0938 1343.3125,418.1719 1343.3125,420.8906 L1343.3125,422.0156 C1343.3125,424.5938 1345.4219,426.4844 1348.3125,426.4844 C1349.5313,426.4844 1350.6875,426.1875 1351.4375,425.6406 C1352.0156,425.2344 1352.3438,424.7813 1352.3438,424.3906 C1352.3438,423.9375 1351.9531,423.5469 1351.4844,423.5469 C1351.2656,423.5469 1351.0625,423.625 1350.875,423.8125 C1350.4219,424.2969 1350.4219,424.2969 1350.2344,424.3906 C1349.8125,424.6563 1349.125,424.7813 1348.3594,424.7813 C1346.3125,424.7813 1345.0156,423.6875 1345.0156,421.9844 L1345.0156,420.8906 C1345.0156,419.1094 1346.2656,417.7969 1348,417.7969 C1348.5781,417.7969 1349.1875,417.9531 1349.6563,418.2031 C1350.1406,418.4844 1350.3125,418.7031 1350.4063,419.1094 C1350.4688,419.5156 1350.5,419.6406 1350.6406,419.7656 C1350.7813,419.9063 1351.0156,420.0156 1351.2344,420.0156 C1351.5,420.0156 1351.7656,419.875 1351.9375,419.6563 C1352.0469,419.5 1352.0781,419.3125 1352.0781,418.8906 L1352.0781,417.4688 C1352.0781,417.0313 1352.0625,416.9063 1351.9688,416.75 C1351.8125,416.4844 1351.5313,416.3438 1351.2344,416.3438 C1350.9375,416.3438 1350.7344,416.4375 1350.5156,416.75 L1350.3438,416.6719 Z "/><text fill="#000000" font-family="sans-serif" font-size="12" lengthAdjust="spacingAndGlyphs" textLength="140" x="1362" y="425.1543">StatisticsDataController</text><line style="stroke: #A80036; stroke-width: 1.5;" x1="1334" x2="1504" y1="437" y2="437"/><line style="stroke: #A80036; stroke-width: 1.5;" x1="1334" x2="1504" y1="445" y2="445"/><!--MD5=[af8c91f31a065b198096dbbdf50defb4]
class RoomController--><rect fill="#FEFECE" filter="url(#f14eqlju4xdr41)" height="48" id="RoomController" style="stroke: #A80036; stroke-width: 1.5;" width="125" x="1168.5" y="586"/><ellipse cx="1183.5" cy="602" fill="#ADD1B2" rx="11" ry="11" style="stroke: #A80036; stroke-width: 1.0;"/><path d="M1185.8438,597.6719 C1184.9063,597.2344 1184.3125,597.0938 1183.4375,597.0938 C1180.8125,597.0938 1178.8125,599.1719 1178.8125,601.8906 L1178.8125,603.0156 C1178.8125,605.5938 1180.9219,607.4844 1183.8125,607.4844 C1185.0313,607.4844 1186.1875,607.1875 1186.9375,606.6406 C1187.5156,606.2344 1187.8438,605.7813 1187.8438,605.3906 C1187.8438,604.9375 1187.4531,604.5469 1186.9844,604.5469 C1186.7656,604.5469 1186.5625,604.625 1186.375,604.8125 C1185.9219,605.2969 1185.9219,605.2969 1185.7344,605.3906 C1185.3125,605.6563 1184.625,605.7813 1183.8594,605.7813 C1181.8125,605.7813 1180.5156,604.6875 1180.5156,602.9844 L1180.5156,601.8906 C1180.5156,600.1094 1181.7656,598.7969 1183.5,598.7969 C1184.0781,598.7969 1184.6875,598.9531 1185.1563,599.2031 C1185.6406,599.4844 1185.8125,599.7031 1185.9063,600.1094 C1185.9688,600.5156 1186,600.6406 1186.1406,600.7656 C1186.2813,600.9063 1186.5156,601.0156 1186.7344,601.0156 C1187,601.0156 1187.2656,600.875 1187.4375,600.6563 C1187.5469,600.5 1187.5781,600.3125 1187.5781,599.8906 L1187.5781,598.4688 C1187.5781,598.0313 1187.5625,597.9063 1187.4688,597.75 C1187.3125,597.4844 1187.0313,597.3438 1186.7344,597.3438 C1186.4375,597.3438 1186.2344,597.4375 1186.0156,597.75 L1185.8438,597.6719 Z "/><text fill="#000000" font-family="sans-serif" font-size="12" lengthAdjust="spacingAndGlyphs" textLength="93" x="1197.5" y="606.1543">RoomController</text><line style="stroke: #A80036; stroke-width: 1.5;" x1="1169.5" x2="1292.5" y1="618" y2="618"/><line style="stroke: #A80036; stroke-width: 1.5;" x1="1169.5" x2="1292.5" y1="626" y2="626"/><!--MD5=[647f550cdc5b885e7722830fce2f2187]
class SensorsApiApplication--><rect fill="#FEFECE" filter="url(#f14eqlju4xdr41)" height="48" id="SensorsApiApplication" style="stroke: #A80036; stroke-width: 1.5;" width="167" x="1328.5" y="586"/><ellipse cx="1343.5" cy="602" fill="#ADD1B2" rx="11" ry="11" style="stroke: #A80036; stroke-width: 1.0;"/><path d="M1345.8438,597.6719 C1344.9063,597.2344 1344.3125,597.0938 1343.4375,597.0938 C1340.8125,597.0938 1338.8125,599.1719 1338.8125,601.8906 L1338.8125,603.0156 C1338.8125,605.5938 1340.9219,607.4844 1343.8125,607.4844 C1345.0313,607.4844 1346.1875,607.1875 1346.9375,606.6406 C1347.5156,606.2344 1347.8438,605.7813 1347.8438,605.3906 C1347.8438,604.9375 1347.4531,604.5469 1346.9844,604.5469 C1346.7656,604.5469 1346.5625,604.625 1346.375,604.8125 C1345.9219,605.2969 1345.9219,605.2969 1345.7344,605.3906 C1345.3125,605.6563 1344.625,605.7813 1343.8594,605.7813 C1341.8125,605.7813 1340.5156,604.6875 1340.5156,602.9844 L1340.5156,601.8906 C1340.5156,600.1094 1341.7656,598.7969 1343.5,598.7969 C1344.0781,598.7969 1344.6875,598.9531 1345.1563,599.2031 C1345.6406,599.4844 1345.8125,599.7031 1345.9063,600.1094 C1345.9688,600.5156 1346,600.6406 1346.1406,600.7656 C1346.2813,600.9063 1346.5156,601.0156 1346.7344,601.0156 C1347,601.0156 1347.2656,600.875 1347.4375,600.6563 C1347.5469,600.5 1347.5781,600.3125 1347.5781,599.8906 L1347.5781,598.4688 C1347.5781,598.0313 1347.5625,597.9063 1347.4688,597.75 C1347.3125,597.4844 1347.0313,597.3438 1346.7344,597.3438 C1346.4375,597.3438 1346.2344,597.4375 1346.0156,597.75 L1345.8438,597.6719 Z "/><text fill="#000000" font-family="sans-serif" font-size="12" lengthAdjust="spacingAndGlyphs" textLength="135" x="1357.5" y="606.1543">SensorsApiApplication</text><line style="stroke: #A80036; stroke-width: 1.5;" x1="1329.5" x2="1494.5" y1="618" y2="618"/><line style="stroke: #A80036; stroke-width: 1.5;" x1="1329.5" x2="1494.5" y1="626" y2="626"/><!--MD5=[b34797a66dc35cbf1d65f7e3ca75530e]
class Task--><rect fill="#FEFECE" filter="url(#f14eqlju4xdr41)" height="60.8047" id="Task" style="stroke: #A80036; stroke-width: 1.5;" width="60" x="1234" y="7"/><ellipse cx="1249" cy="23" fill="#ADD1B2" rx="11" ry="11" style="stroke: #A80036; stroke-width: 1.0;"/><path d="M1251.3438,18.6719 C1250.4063,18.2344 1249.8125,18.0938 1248.9375,18.0938 C1246.3125,18.0938 1244.3125,20.1719 1244.3125,22.8906 L1244.3125,24.0156 C1244.3125,26.5938 1246.4219,28.4844 1249.3125,28.4844 C1250.5313,28.4844 1251.6875,28.1875 1252.4375,27.6406 C1253.0156,27.2344 1253.3438,26.7813 1253.3438,26.3906 C1253.3438,25.9375 1252.9531,25.5469 1252.4844,25.5469 C1252.2656,25.5469 1252.0625,25.625 1251.875,25.8125 C1251.4219,26.2969 1251.4219,26.2969 1251.2344,26.3906 C1250.8125,26.6563 1250.125,26.7813 1249.3594,26.7813 C1247.3125,26.7813 1246.0156,25.6875 1246.0156,23.9844 L1246.0156,22.8906 C1246.0156,21.1094 1247.2656,19.7969 1249,19.7969 C1249.5781,19.7969 1250.1875,19.9531 1250.6563,20.2031 C1251.1406,20.4844 1251.3125,20.7031 1251.4063,21.1094 C1251.4688,21.5156 1251.5,21.6406 1251.6406,21.7656 C1251.7813,21.9063 1252.0156,22.0156 1252.2344,22.0156 C1252.5,22.0156 1252.7656,21.875 1252.9375,21.6563 C1253.0469,21.5 1253.0781,21.3125 1253.0781,20.8906 L1253.0781,19.4688 C1253.0781,19.0313 1253.0625,18.9063 1252.9688,18.75 C1252.8125,18.4844 1252.5313,18.3438 1252.2344,18.3438 C1251.9375,18.3438 1251.7344,18.4375 1251.5156,18.75 L1251.3438,18.6719 Z "/><text fill="#000000" font-family="sans-serif" font-size="12" lengthAdjust="spacingAndGlyphs" textLength="28" x="1263" y="27.1543">Task</text><line style="stroke: #A80036; stroke-width: 1.5;" x1="1235" x2="1293" y1="39" y2="39"/><line style="stroke: #A80036; stroke-width: 1.5;" x1="1235" x2="1293" y1="47" y2="47"/><polygon fill="#FFFF44" points="1245,53,1249,57,1245,61,1241,57" style="stroke: #B38D22; stroke-width: 1.0;"/><text fill="#000000" font-family="sans-serif" font-size="11" font-style="italic" lengthAdjust="spacingAndGlyphs" textLength="27" x="1254" y="61.2104">call()</text><!--MD5=[0b4e4b4980470ea387cc45de9bd14b5b]
class Application--><rect fill="#FEFECE" filter="url(#f14eqlju4xdr41)" height="60.8047" id="Application" style="stroke: #A80036; stroke-width: 1.5;" width="98" x="1522" y="7"/><ellipse cx="1537" cy="23" fill="#ADD1B2" rx="11" ry="11" style="stroke: #A80036; stroke-width: 1.0;"/><path d="M1539.3438,18.6719 C1538.4063,18.2344 1537.8125,18.0938 1536.9375,18.0938 C1534.3125,18.0938 1532.3125,20.1719 1532.3125,22.8906 L1532.3125,24.0156 C1532.3125,26.5938 1534.4219,28.4844 1537.3125,28.4844 C1538.5313,28.4844 1539.6875,28.1875 1540.4375,27.6406 C1541.0156,27.2344 1541.3438,26.7813 1541.3438,26.3906 C1541.3438,25.9375 1540.9531,25.5469 1540.4844,25.5469 C1540.2656,25.5469 1540.0625,25.625 1539.875,25.8125 C1539.4219,26.2969 1539.4219,26.2969 1539.2344,26.3906 C1538.8125,26.6563 1538.125,26.7813 1537.3594,26.7813 C1535.3125,26.7813 1534.0156,25.6875 1534.0156,23.9844 L1534.0156,22.8906 C1534.0156,21.1094 1535.2656,19.7969 1537,19.7969 C1537.5781,19.7969 1538.1875,19.9531 1538.6563,20.2031 C1539.1406,20.4844 1539.3125,20.7031 1539.4063,21.1094 C1539.4688,21.5156 1539.5,21.6406 1539.6406,21.7656 C1539.7813,21.9063 1540.0156,22.0156 1540.2344,22.0156 C1540.5,22.0156 1540.7656,21.875 1540.9375,21.6563 C1541.0469,21.5 1541.0781,21.3125 1541.0781,20.8906 L1541.0781,19.4688 C1541.0781,19.0313 1541.0625,18.9063 1540.9688,18.75 C1540.8125,18.4844 1540.5313,18.3438 1540.2344,18.3438 C1539.9375,18.3438 1539.7344,18.4375 1539.5156,18.75 L1539.3438,18.6719 Z "/><text fill="#000000" font-family="sans-serif" font-size="12" lengthAdjust="spacingAndGlyphs" textLength="66" x="1551" y="27.1543">Application</text><line style="stroke: #A80036; stroke-width: 1.5;" x1="1523" x2="1619" y1="39" y2="39"/><line style="stroke: #A80036; stroke-width: 1.5;" x1="1523" x2="1619" y1="47" y2="47"/><ellipse cx="1533" cy="58" fill="#84BE84" rx="3" ry="3" style="stroke: #038048; stroke-width: 1.0;"/><text fill="#000000" font-family="sans-serif" font-size="11" font-style="italic" lengthAdjust="spacingAndGlyphs" textLength="34" x="1542" y="61.2104">start()</text><!--MD5=[47fe46dc5b4bdd42732eb60552cd862a]
class WarningType--><rect fill="#FEFECE" filter="url(#f14eqlju4xdr41)" height="48" id="WarningType" style="stroke: #A80036; stroke-width: 1.5;" width="111" x="120.5" y="405"/><ellipse cx="135.5" cy="421" fill="#EB937F" rx="11" ry="11" style="stroke: #A80036; stroke-width: 1.0;"/><path d="M134.2969,421.875 L135.75,421.875 L135.75,421.9844 C135.75,422.3906 135.7813,422.5469 135.8594,422.7031 C136.0156,422.9531 136.2969,423.1094 136.5938,423.1094 C136.8438,423.1094 137.1094,422.9688 137.2656,422.75 C137.3906,422.5938 137.4219,422.4375 137.4219,421.9844 L137.4219,420.0625 C137.4219,419.9063 137.4219,419.8594 137.4063,419.7031 C137.3438,419.2344 137.0313,418.9219 136.5781,418.9219 C136.3281,418.9219 136.0625,419.0625 135.8906,419.2813 C135.7813,419.4531 135.75,419.6094 135.75,420.0625 L135.75,420.1875 L134.2969,420.1875 L134.2969,417.7813 L138.2813,417.7813 L138.2813,418.6406 C138.2813,419.0469 138.3125,419.2188 138.3906,419.375 C138.5625,419.625 138.8438,419.7813 139.125,419.7813 C139.3906,419.7813 139.6563,419.6406 139.8281,419.4219 C139.9375,419.25 139.9688,419.1094 139.9688,418.6406 L139.9688,416.0938 L132.3438,416.0938 C131.9063,416.0938 131.7813,416.1094 131.625,416.2031 C131.375,416.3594 131.2188,416.6563 131.2188,416.9375 C131.2188,417.2188 131.3594,417.4688 131.5781,417.6406 C131.7344,417.75 131.9219,417.7813 132.3438,417.7813 L132.5938,417.7813 L132.5938,424.2969 L132.3438,424.2969 C131.9375,424.2969 131.7813,424.3125 131.625,424.4219 C131.375,424.5938 131.2188,424.8594 131.2188,425.1563 C131.2188,425.4219 131.3594,425.6719 131.5781,425.8281 C131.7188,425.9531 131.9531,426 132.3438,426 L140.3438,426 L140.3438,423.4219 C140.3438,422.9844 140.3125,422.8438 140.2344,422.6875 C140.0625,422.4375 139.7813,422.2813 139.5,422.2813 C139.2344,422.2813 138.9688,422.3906 138.7969,422.6406 C138.6875,422.7969 138.6563,422.9375 138.6563,423.4219 L138.6563,424.2969 L134.2969,424.2969 L134.2969,421.875 Z "/><text fill="#000000" font-family="sans-serif" font-size="12" lengthAdjust="spacingAndGlyphs" textLength="79" x="149.5" y="425.1543">WarningType</text><line style="stroke: #A80036; stroke-width: 1.5;" x1="121.5" x2="230.5" y1="437" y2="437"/><line style="stroke: #A80036; stroke-width: 1.5;" x1="121.5" x2="230.5" y1="445" y2="445"/><!--MD5=[3ef0595a9d459cb16efd8f7d8131728f]
reverse link Application to Main--><path d="M1571,88.41 C1571,102.98 1571,119.221 1571,134.945 " fill="none" id="Application&lt;-Main" style="stroke: #A80036; stroke-width: 1.0;"/><polygon fill="none" points="1564,88.2,1571,68.2,1578,88.2,1564,88.2" style="stroke: #A80036; stroke-width: 1.0;"/><!--MD5=[0b93fd7c90a8f29df97f6aa744a7d0b7]
reverse link Task to ServiceManager--><path d="M1264,88.49 C1264,109 1264,132.812 1264,153.828 " fill="none" id="Task&lt;-ServiceManager" style="stroke: #A80036; stroke-width: 1.0;"/><polygon fill="none" points="1257,88.2,1264,68.2,1271,88.2,1257,88.2" style="stroke: #A80036; stroke-width: 1.0;"/><!--MD5=[526a0ff3e280661085c298923749cd7a]
reverse link Controller to MainHubController--><path d="M638.569,656.883 C664.796,671.553 692.815,688.758 717,707 C744.7,727.893 772.459,752.831 797.568,777.287 " fill="none" id="Controller&lt;-MainHubController" style="stroke: #A80036; stroke-width: 1.0; stroke-dasharray: 7.0,7.0;"/><polygon fill="none" points="634.957,662.887,620.766,647.151,641.673,650.603,634.957,662.887" style="stroke: #A80036; stroke-width: 1.0;"/><!--MD5=[54d857fc6837959742eab933cf1021e4]
reverse link Controller to RoomsController--><path d="M491.6,659.413 C484.256,664.719 476.624,669.734 469,674 C430.727,695.418 413.101,683.611 376,707 C370.31,710.587 364.66,714.387 359.066,718.36 " fill="none" id="Controller&lt;-RoomsController" style="stroke: #A80036; stroke-width: 1.0; stroke-dasharray: 7.0,7.0;"/><polygon fill="none" points="487.463,653.764,507.584,647.12,495.998,664.862,487.463,653.764" style="stroke: #A80036; stroke-width: 1.0;"/><!--MD5=[4d2c4aed195e012e29620210de0fd1d9]
reverse link Controller to StatisticsController--><path d="M547,667.387 C547,684.878 547,705.083 547,725.973 " fill="none" id="Controller&lt;-StatisticsController" style="stroke: #A80036; stroke-width: 1.0; stroke-dasharray: 7.0,7.0;"/><polygon fill="none" points="540,667.186,547,647.186,554,667.186,540,667.186" style="stroke: #A80036; stroke-width: 1.0;"/><!--MD5=[ce69c731ed9c57d5e7085560b2175beb]
reverse link Warning to WarningType--><path d="M176,300.268 C176,338.275 176,379.535 176,404.581 " fill="none" id="Warning&lt;-WarningType" style="stroke: #A80036; stroke-width: 1.0;"/><ellipse cx="176" cy="293.072" fill="#FFFFFF" rx="8" ry="8" style="stroke: #A80036; stroke-width: 1.0;"/><line style="stroke: #A80036; stroke-width: 1.0;" x1="176" x2="176" y1="301.072" y2="285.072"/><line style="stroke: #A80036; stroke-width: 1.0;" x1="168" x2="184" y1="293.072" y2="293.072"/><!--MD5=[094cec72b0a2eab9748cad6c8c1562fd]
link application.warningSystem to application.controllers--><path d="M15,310.8328 C15,311.5064 15,312.182 15,312.8597 C15,315.5703 15,318.3127 15,321.0841 C15,326.6269 15,332.2856 15,338.037 C15,361.0424 15,385.5306 15,410.0185 C15,434.5064 15,458.9939 15,481.9978 C15,493.4997 15,504.6308 15,515.2055 C15,517.8492 15,520.4582 15,523.0294 C15,524.315 15,525.5912 15,526.8577 C15,527.4909 15,528.1217 15,528.7499 C15,529.0641 15,529.3776 15,529.6905 " fill="none" id="application.warningSystem-application.controllers" style="stroke: #A80036; stroke-width: 1.0;"/><!--MD5=[51d593d0127dc2a82c62268a6b3fc73c]
link ServiceManager to Main--><path d="M1394.71,210 C1406.42,210 1418.13,210 1429.83,210 " fill="none" id="ServiceManager-Main" style="stroke: #A80036; stroke-width: 1.0;"/><!--MD5=[8ba6e1085b87a401d004f8b78ba6df28]
link application.networking to application.controllers--><path d="M510.9839,433.0234 C506.3766,434.7376 499.9041,437.1132 491.8841,439.9747 C475.8442,445.6977 453.6142,453.3639 427.7353,461.5679 C375.9773,477.9757 309.623,496.5345 249,506 C236.587,507.938 32.097,505.335 23,514 C19.2248,517.5959 16.2576,521.7452 13.9566,526.2573 C13.3813,527.3853 12.8477,528.536 12.3535,529.7064 " fill="none" id="application.networking-application.controllers" style="stroke: #A80036; stroke-width: 1.0;"/><!--MD5=[6351b97dfa7812a28faa697bae16bcb4]
link application to application.networking--><path d="M1089.8965,211.5764 C1089.3702,211.6152 1088.8195,211.656 1088.245,211.6989 C1087.0959,211.7845 1085.8512,211.8783 1084.5139,211.9803 C1081.8395,212.1842 1078.7951,212.4208 1075.4062,212.691 C1061.8505,213.7718 1042.7824,215.3898 1019.8274,217.5995 C973.9174,222.0187 912.46,228.8044 848.4605,238.391 C720.4615,257.5643 582.294,287.9415 538,333 C534.2858,336.7783 531.1979,341.065 528.6385,345.678 C528.3186,346.2547 528.0069,346.8364 527.7033,347.4228 C527.5515,347.7161 527.4017,348.0105 527.2539,348.306 C527.18,348.4538 527.1067,348.6019 527.0337,348.7502 " fill="none" id="application-application.networking" style="stroke: #A80036; stroke-width: 1.0;"/><!--MD5=[e17d2368c398c8e0779b230918d0df77]
link Main to MainHubController--><path d="M1585.41,285.054 C1600.32,384.858 1610.45,562.815 1521,674 C1409.27,812.879 1202.15,860.316 1057.07,876.172 " fill="none" id="Main-MainHubController" style="stroke: #A80036; stroke-width: 1.0;"/><!--MD5=[f5b0089df5909b826f5b97762e51a74a]
link application to sensorsApi--><path d="M1112.1011,309.6954 C1112.5687,312.969 1113.0381,316.2545 1113.5075,319.54 C1115.385,332.682 1117.2623,345.8232 1119.0294,358.1924 C1119.4711,361.2847 1119.906,364.3288 1120.3322,367.3125 C1120.5454,368.8044 1120.7563,370.2812 1120.9649,371.7414 " fill="none" id="application-sensorsApi" style="stroke: #A80036; stroke-width: 1.0;"/><!--MD5=[eea69182a10a3a3cba2d0a69fe48359a]
link SensorController to StatisticsDataController--><!--MD5=[07f5c4acc3ea4489960571c2059a136e]
link SensorController to RoomController--><!--MD5=[6292b4a5e51ac79150fd6c1132d30a59]
link RoomController to SensorsApiApplication--><!--MD5=[5262943b2d726c511864ef9c490485e0]
@startuml
class Task{
    #{abstract}call()
}

class Application{
    +{abstract}start()
}
enum WarningType{
}

package application <<Rectangle>>{

class Main extends Application{
    +{static} serverOn : boolean
    +{static} running : boolean
    +{static} serviceManager : ServiceManager
    +{static} df : DecimalFormat
    +{static} dfW : DecimalFormat

    +{static}main(args : String[]) : void
    +{static}checkServerConnection() : boolean
    +start(primaryStage : Stage) : void <<override>>

}
class ServiceManager extends Task{
    - removalInProcess : boolean
    - controller : Controller
    - SLEEP_TIME : int
    
    #call() : Object <<override>>
    +setController(controller : Controller) : void

}
}

package application.controllers <<Rectangle>>{

interface Controller{
    update() : boolean
    requestData() : boolean
}

class MainHubController implements Controller{
    
    + {static} days : int
    - slider : JFXSlider <<fxml>>
    - temp_c : Label <<fxml>>
    - daysHubLabel : Label <<fxml>>
    - lastGlobalTemp : double
    
    - initialize() : void <<synchronized>>
    + update() : boolean <<override>>
    + requestData() : boolean <<override>> <<synchronized>>
    - changeValue() : void <<fxml>>
    - increment() : void <<fxml>>
    - decrement() : void <<fxml>>
    + changeScreenRooms(evt : ActionEvent) : void
    + changeScreenStatistics(evt : ActionEvent) : void
}

class RoomsController implements Controller{

    +{static} roomsToDelete : List<String>
    +{static} removingInProcess : boolean
    - sensorPaneId : Pane <<fxml>>
    - listView : ListView<String> <<fxml>>
    - textAddTextField : TextField <<fxml>>
    - sensorNameLabel : Label <<fxml>>
    - lightsOnTimeLabel : Label <<fxml>>
    - temperatureLabel : Label <<fxml>>
    - powerConsumptionAtmLabel : Label <<fxml>>
    - usedRoomNames : List<String>
    - currentlyChosenRoomName : String
    - electricityUsage : double
    - lightTime : boolean
    - currentTemperature : double
    - sensor : Sensor
    - room : Room

    + handleMouseClick(arg0 : MouseEvent) : void <<fxml>>
    - initialize() : void <<fxml>> <<synchronized>>
    + update() : boolean
    + requestData() : boolean <<synchronized>>
    + addRoom() : void <<synchronized>>
    + removeRoom() : void
    + changeScreenStatistics(evt : ActionEvent) : void
    + goBack(evt : ActionEvent) : void
}
class StatisticsController implements Controller{
    + {static} MONTHS : String[]
    + {static} roomNamesIDs : Map<String, Integer>
    + {static} threadFinished : boolean
    + {static} daysHeated : int
    + {static} lightData : Map<String, Map<Integer, Integer>>
    + {static} totalEnergyConsumption : Map<Integer, Double>
    - roomsListView : ListView<String> <<fxml>>
    - monthsListView : ListView<String> <<fxml>>
    - numDaysHeaterOnLabel : Label <<fxml>>
    - numAverageTimeLightsOn : Label <<fxml>>
    - numFullPowerConsInKwh : Label <<fxml>>
    - currentlyChosenMonth : String
    - currentlyChosenMonthNumber : int
    - currentlyChosenRoomName : String
    - updated : boolean
    - statistics : StatisticsData
    
    - initialize() : void <<fxml>> <<synchronized>>
    + update() : boolean <<override>>
    + requestData() : boolean <<override>>
    + changeScreenRooms(evt : ActionEvent) : void
    + goBack(evt : ActionEvent) : void
}
}
package application.warningSystem <<Rectangle>>{
class Warning{
    + {static} labelProperty : StringProperty
    - counter : int
    - appOffButton : ButtonType
    - alert : Alert
    - window : Stage
    - label : Label
    +.ctor(warningType : WarningType)
    - initServerDown() : void <<synchronized>>
}
}

package application.networking{
class JSONHandler{
    +{static} get(urlToRead : String) : String
    +{static} post(urlPath : String, body: String) : void
}
}

package sensorsApi <<Cloud>>{
class SensorController{}
class StatisticsDataController{}
class RoomController{}
class SensorsApiApplication{}
}

Warning +- - WarningType
application.warningSystem - - - application.controllers
ServiceManager - Main
application.networking - - application.controllers
application - - application.networking
Main - - MainHubController
application - - sensorsApi
@enduml

PlantUML version 1.2020.13(Sat Jun 13 12:26:38 UTC 2020)
(GPL source distribution)
Java Runtime: Java(TM) SE Runtime Environment
JVM: Java HotSpot(TM) 64-Bit Server VM
Default Encoding: UTF-8
Language: en
Country: US
--></g></svg>